<?xml version="1.0" standalone="no"?>
<!DOCTYPE svg PUBLIC "-//W3C//DTD SVG 20010904//EN"
 "http://www.w3.org/TR/2001/REC-SVG-20010904/DTD/svg10.dtd">
<svg version="1.0" xmlns="http://www.w3.org/2000/svg"
 width="260.000000pt" height="260.000000pt" viewBox="0 0 260.000000 260.000000"
 preserveAspectRatio="xMidYMid meet">
<metadata>
Created by potrace 1.11, written by Peter Selinger 2001-2013
</metadata>
<g transform="translate(0.000000,260.000000) scale(0.100000,-0.100000)"
fill="#000000" stroke="none">
<path d="M0 1300 l0 -1300 1300 0 1300 0 0 1300 0 1300 -1300 0 -1300 0 0
-1300z m1057 948 l103 -103 0 -357 c0 -197 3 -358 7 -358 4 0 67 60 140 132
l133 133 0 150 0 150 -70 70 -70 70 110 110 110 110 110 -110 110 -110 0 -734
0 -735 47 -48 c26 -26 52 -48 57 -48 6 0 38 27 71 60 l61 60 44 -45 44 -45
-174 -175 -175 -175 -137 137 -138 138 0 415 0 415 -140 -140 -140 -140 0
-340 0 -341 -73 -72 -72 -72 -78 78 -77 77 0 796 c0 958 13 887 -135 739 l-95
-95 -47 48 -48 47 205 205 c113 113 207 205 210 205 2 0 51 -46 107 -102z">
</g>
</svg>
