<?xml version="1.0" encoding="utf-8"?>
<!-- Generator: Adobe Illustrator 19.0.0, SVG Export Plug-In . SVG Version: 6.00 Build 0)  -->
<svg version="1.1" id="Layer_1" xmlns="http://www.w3.org/2000/svg" xmlns:xlink="http://www.w3.org/1999/xlink" x="0px" y="0px"
	 viewBox="0 0 223.8 73.1" style="enable-background:new 0 0 223.8 73.1;" xml:space="preserve">
<style type="text/css">
	.st0{fill:#1C75BC;}
	.st1{fill:url(#SVGID_1_);}
</style>
<g>
	<g>
		<g>
			<path class="st0" d="M54.5,44.5H4.4c-2.4,0-4.4-2-4.4-4.4l0,0c0-2.4,2-4.4,4.4-4.4h50.1c2.4,0,4.4,2,4.4,4.4l0,0
				C58.8,42.5,56.9,44.5,54.5,44.5z"/>
		</g>
	</g>
	<g>
		<g>
			<path class="st0" d="M54.5,22.4H14.6c-2.4,0-4.4,2-4.4,4.4l0,0c0,2.4,2,4.4,4.4,4.4h39.8c2.4,0,4.4-2,4.4-4.4l0,0
				C58.8,24.3,56.9,22.4,54.5,22.4z"/>
		</g>
	</g>
	<g>
		<g>
			<path class="st0" d="M76.5,64.4H38.9c-2.4,0-4.4,2-4.4,4.4l0,0c0,2.4,2,4.4,4.4,4.4h37.6c2.4,0,4.4-2,4.4-4.4l0,0
				C80.9,66.3,78.9,64.4,76.5,64.4z"/>
		</g>
	</g>
	<g>
		<g>
			<path class="st0" d="M54.5,8.9H35c-2.4,0-4.4,2-4.4,4.4l0,0c0,2.4,2,4.4,4.4,4.4h19.5c2.4,0,4.4-2,4.4-4.4l0,0
				C58.8,10.9,56.9,8.9,54.5,8.9z"/>
		</g>
	</g>
	<g>
		<path class="st0" d="M54.5,49.2H10.6c-2.4,0-4.4,2-4.4,4.4v0c0,2.4,2,4.4,4.4,4.4h43.9c2.4,0,4.4-2,4.4-4.4v0
			C58.8,51.1,56.9,49.2,54.5,49.2z"/>
	</g>
	<linearGradient id="SVGID_1_" gradientUnits="userSpaceOnUse" x1="70.8106" y1="29.2922" x2="223.7638" y2="29.2922">
		<stop  offset="2.008000e-05" style="stop-color:#1C75BC"/>
		<stop  offset="0.351" style="stop-color:#00AEEF"/>
		<stop  offset="0.4135" style="stop-color:#00AED6"/>
		<stop  offset="0.5226" style="stop-color:#00B0B4"/>
		<stop  offset="0.63" style="stop-color:#49B298"/>
		<stop  offset="0.7334" style="stop-color:#6BB483"/>
		<stop  offset="0.8318" style="stop-color:#7EB671"/>
		<stop  offset="0.923" style="stop-color:#89B766"/>
		<stop  offset="1" style="stop-color:#8CB861"/>
	</linearGradient>
	<path class="st1" d="M91.2,8.9H70.8v48.9H81V40.7h9.8c9.9,0,16.5-6.4,16.5-16C107.2,15.4,100.6,8.9,91.2,8.9z M89.9,32.4h-9V17.5h9
		c4.8,0,7.3,3.8,7.3,7.4C97.2,29.2,94.2,32.4,89.9,32.4z M126.1,48.8c-1.3,2.2-3.4,3.3-6.4,3.3c-3.3,0-5.8-2.3-6.6-5.9l-0.1-0.5
		h21.3v-1.9c-0.2-8.7-6.1-14.8-14.4-14.8c-8.5,0-14.8,6.4-14.8,14.8c0,8.5,6.4,14.8,14.8,14.8c5.4,0,9.6-2,12.2-5.7L126.1,48.8z
		 M113.3,40.3c1-3.4,4-4.9,6.5-4.9c3.1,0,5.4,1.8,6.2,4.9l0.2,0.6h-13.1L113.3,40.3z M188.5,43.1l13.6,14.7h-10.6l-9.4-10.4h-2.3
		v10.4h-8.3V17.2h8.3v22.4h1.9l9.1-9.8h9.9L188.5,43.1z M210.6,0c-7.3,0-13.2,5.9-13.2,13.2c0,7.3,5.9,13.2,13.2,13.2
		c7.3,0,13.2-5.9,13.2-13.2C223.8,5.9,217.9,0,210.6,0z M216.1,20.5c-1.4,1.4-3.3,2.1-5.3,2.1c-2,0-3.9-0.6-5.3-1.7
		c-1.4-1.1-2.2-2.6-2.2-4.4h4c0,1.4,1.7,2.6,3.6,2.6c1.9,0,3.3-1.7,3.3-3c0-1.7-0.6-2.7-3.3-2.7h-7V3.5h12.4v3.4h-8.8v2.8h3.3
		c4.7,0,7.3,2.2,7.3,6.3C218.2,17.6,217.4,19.3,216.1,20.5z M205.4,29.8h8.3v28h-8.3V29.8z M166.2,40.5v17.3h-8.3V42.4
		c0-3.6-2.2-6.1-5.4-6.1c-2.4,0-6.4,1.1-6.4,8.5v12.9h-8.3v-28h8.3v3.4l0.8-0.8c2.2-2.3,5.1-3.5,8.5-3.5
		C162,28.9,166.2,33.4,166.2,40.5z"/>
</g>
</svg>
