<?xml version="1.0"?><svg width="640" height="480" xmlns="http://www.w3.org/2000/svg">
 <title>bright green star</title>
 <g>
  <title>Layer 1</title>
  <g id="layer1">
   <g id="g4794">
    <path fill="#00ffff" fill-opacity="0.215094" fill-rule="evenodd" stroke="#54514f" stroke-width="1.259223" stroke-miterlimit="4" stroke-dashoffset="0" stroke-opacity="0.2" id="path3551" d="m452.442261,461.746552c-24.51236,15.081573 -96.19458,-85.848816 -124.408508,-89.121796c-28.213989,-3.272919 -117.327011,79.004486 -138.465698,58.627045c-21.138763,-20.377228 45.978333,-123.858154 39.989029,-153.556488c-5.989243,-29.698212 -107.239883,-95.471466 -95.79187,-123.146973c11.447845,-27.675354 124.610641,9.300247 149.123032,-5.781433c24.512421,-15.081497 51.049072,-138.009018 79.263,-134.736042c28.213959,3.272964 31.0354,129.606144 52.174133,149.983463c21.138733,20.377228 138.789978,10.177216 144.779175,39.875504c5.989258,29.698151 -105.42981,70.800781 -116.877686,98.476227c-11.447937,27.675415 34.727844,144.29892 10.215393,159.380493z"/>
    <path fill="#00ffff" fill-rule="evenodd" stroke="#000084" stroke-width="1.259223" stroke-miterlimit="4" stroke-dashoffset="0" id="path1061" d="m447.980377,446.254395c-23.483856,14.140778 -92.158325,-80.49292 -119.188477,-83.561707c-27.030151,-3.068665 -112.404068,74.075653 -132.655807,54.969513c-20.251816,-19.105988 44.049118,-116.131012 38.311142,-143.976563c-5.737961,-27.845367 -102.740234,-89.515244 -91.772583,-115.464142c10.967514,-25.948792 119.382141,8.720001 142.866028,-5.420761c23.483887,-14.140579 48.907104,-129.398979 75.937164,-126.330208c27.030121,3.068764 29.733215,121.520348 49.984985,140.626381c20.251801,19.105988 132.966492,9.542313 138.704407,37.387787c5.737976,27.845383 -101.006104,66.383682 -111.973663,92.332565c-10.96756,25.948853 33.270721,135.296539 9.786804,149.437134z"/>
    <path fill="#00ffff" fill-opacity="0.69434" fill-rule="evenodd" stroke-width="0.539189" stroke-miterlimit="4" stroke-dashoffset="0" id="path1685" d="m358.547272,34.251747c-24.211426,-2.748756 -51.514496,116.287895 -72.549438,128.954018c-21.034943,12.666016 -125.633942,-24.696014 -135.457764,-1.453171c-9.823868,23.242874 84.543579,84.810486 89.683167,109.752167c5.139557,24.941681 -53.931976,119.750885 -35.792053,136.864532c2.116089,1.996338 -17.470749,1.168823 4.085907,1.069702c-15.619507,-40.871948 41.878845,-110.106964 37.140259,-133.10257c-5.139587,-24.94162 -96.543579,-88.088425 -86.719696,-111.331268c9.823853,-23.242889 108.45462,15.741745 129.489563,3.075699c20.569305,-12.385712 42.776703,-117.455872 66.389771,-119.261978c-2.847992,-4.685783 7.487549,-14.140572 3.730286,-14.567131zm55.209045,143.425774c0.798523,1.201874 1.612732,2.352829 2.47879,3.169952c14.557495,13.733887 82.349548,10.985565 111.255493,22.232971c-11.631958,-18.43425 -84.856384,-15.177368 -113.734283,-25.402924zm-70.168335,184.279053c21.702606,17.165802 50.933228,50.260254 71.34726,61.531586c-23.394318,-18.109375 -52.882294,-51.783142 -71.34726,-61.531586z"/>
    <ellipse id="svg_1" cy="230.939472" cx="362.639934" stroke-dasharray="null" stroke-width="1.259223" stroke="#000084" fill="#00ffff"/>
    <ellipse ry="2.447889" id="svg_2" cy="239.099103" cx="342.456233" stroke-dasharray="null" stroke-width="1.259223" stroke="#000084" fill="#00ffff"/>
   </g>
  </g>
 </g>
</svg>